<svg width="40" height="40" viewBox="0 0 40 40" fill="none" xmlns="http://www.w3.org/2000/svg">
<circle cx="20" cy="20" r="20" fill="#2B2B2B" fill-opacity="0.47"/>
<path d="M19.9584 25.0003C20.2501 25.0003 20.4967 24.8995 20.6984 24.6978C20.9001 24.4962 21.0006 24.2498 21.0001 23.9587C21.0001 23.667 20.8995 23.4203 20.6984 23.2187C20.4973 23.017 20.2506 22.9164 19.9584 22.917C19.6667 22.917 19.4204 23.0178 19.2192 23.2195C19.0181 23.4212 18.9173 23.6675 18.9167 23.9587C18.9167 24.2503 19.0176 24.497 19.2192 24.6987C19.4209 24.9003 19.6673 25.0009 19.9584 25.0003ZM19.2084 21.792H20.7501C20.7501 21.3337 20.8023 20.9725 20.9067 20.7087C21.0112 20.4448 21.3062 20.0837 21.7917 19.6253C22.1529 19.2642 22.4376 18.9203 22.6459 18.5937C22.8542 18.267 22.9584 17.8748 22.9584 17.417C22.9584 16.6392 22.6737 16.042 22.1042 15.6253C21.5348 15.2087 20.8612 15.0003 20.0834 15.0003C19.2917 15.0003 18.6495 15.2087 18.1567 15.6253C17.664 16.042 17.3201 16.542 17.1251 17.1253L18.5001 17.667C18.5695 17.417 18.7259 17.1462 18.9692 16.8545C19.2126 16.5628 19.584 16.417 20.0834 16.417C20.5279 16.417 20.8612 16.5387 21.0834 16.782C21.3056 17.0253 21.4167 17.2925 21.4167 17.5837C21.4167 17.8614 21.3334 18.122 21.1667 18.3653C21.0001 18.6087 20.7917 18.8342 20.5417 19.042C19.9306 19.5837 19.5556 19.9934 19.4167 20.2712C19.2779 20.5489 19.2084 21.0559 19.2084 21.792ZM20.0001 28.3337C18.8473 28.3337 17.764 28.115 16.7501 27.6778C15.7362 27.2406 14.8542 26.6467 14.1042 25.8962C13.3542 25.1462 12.7606 24.2642 12.3234 23.2503C11.8862 22.2364 11.6673 21.1531 11.6667 20.0003C11.6667 18.8475 11.8856 17.7642 12.3234 16.7503C12.7612 15.7364 13.3548 14.8545 14.1042 14.1045C14.8542 13.3545 15.7362 12.7609 16.7501 12.3237C17.764 11.8864 18.8473 11.6675 20.0001 11.667C21.1529 11.667 22.2362 11.8859 23.2501 12.3237C24.264 12.7614 25.1459 13.355 25.8959 14.1045C26.6459 14.8545 27.2398 15.7364 27.6776 16.7503C28.1154 17.7642 28.334 18.8475 28.3334 20.0003C28.3334 21.1531 28.1145 22.2364 27.6767 23.2503C27.239 24.2642 26.6454 25.1462 25.8959 25.8962C25.1459 26.6462 24.264 27.24 23.2501 27.6778C22.2362 28.1156 21.1529 28.3342 20.0001 28.3337Z" fill="#02F5C3"/>
</svg>
