<svg width="22" height="22" viewBox="0 0 22 22" fill="none" xmlns="http://www.w3.org/2000/svg">
<path d="M10.0834 15.583H11.9167V10.083H10.0834V15.583ZM11.0001 8.24967C11.2598 8.24967 11.4777 8.16167 11.6537 7.98567C11.8297 7.80967 11.9174 7.59212 11.9167 7.33301C11.9167 7.07329 11.8287 6.85573 11.6527 6.68034C11.4767 6.50495 11.2592 6.41695 11.0001 6.41634C10.7404 6.41634 10.5228 6.50434 10.3474 6.68034C10.172 6.85634 10.084 7.0739 10.0834 7.33301C10.0834 7.59273 10.1714 7.81059 10.3474 7.98659C10.5234 8.16259 10.741 8.25029 11.0001 8.24967ZM11.0001 20.1663C8.87647 19.6316 7.12319 18.4131 5.74025 16.5107C4.3573 14.6083 3.66614 12.4963 3.66675 10.1747V4.58301L11.0001 1.83301L18.3334 4.58301V10.1747C18.3334 12.4969 17.6422 14.6092 16.2599 16.5116C14.8776 18.414 13.1243 19.6322 11.0001 20.1663Z" fill="#02F5C3"/>
</svg>
