<svg width="20" height="20" viewBox="0 0 20 20" fill="none" xmlns="http://www.w3.org/2000/svg">
<path d="M8.44592 17.5L8.14425 15.09C7.87814 15.0094 7.59064 14.8833 7.28175 14.7117C6.97231 14.5394 6.70898 14.355 6.49175 14.1583L4.26925 15.1042L2.71509 12.3958L4.63592 10.9475C4.61148 10.7964 4.5912 10.6408 4.57509 10.4808C4.55953 10.3214 4.55175 10.1664 4.55175 10.0158C4.55175 9.87583 4.55953 9.72861 4.57509 9.57417C4.59064 9.41972 4.61092 9.24583 4.63592 9.0525L2.71509 7.60417L4.26925 4.9275L6.47592 5.85833C6.72481 5.65111 6.99425 5.46417 7.28425 5.2975C7.57314 5.13083 7.85453 5.00194 8.12842 4.91083L8.44509 2.5H11.5543L11.8559 4.92667C12.1754 5.03833 12.4576 5.16694 12.7026 5.3125C12.9481 5.45806 13.2006 5.63972 13.4601 5.8575L15.7309 4.9275L17.2851 7.60417L15.3001 9.10083C15.3456 9.27306 15.3712 9.43083 15.3768 9.57417C15.3823 9.71861 15.3851 9.86056 15.3851 10C15.3851 10.1294 15.3795 10.2658 15.3684 10.4092C15.3579 10.5531 15.3334 10.7269 15.2951 10.9308L17.2484 12.3958L15.6943 15.1042L13.4601 14.1425C13.2006 14.3603 12.9395 14.5472 12.6768 14.7033C12.4134 14.8594 12.1398 14.9828 11.8559 15.0733L11.5543 17.5H8.44592ZM9.97759 12.0833C10.5587 12.0833 11.0512 11.8814 11.4551 11.4775C11.859 11.0736 12.0609 10.5811 12.0609 10C12.0609 9.41889 11.859 8.92639 11.4551 8.5225C11.0512 8.11861 10.5587 7.91667 9.97759 7.91667C9.39314 7.91667 8.89981 8.11861 8.49759 8.5225C8.09537 8.92639 7.89425 9.41889 7.89425 10C7.89425 10.5811 8.09537 11.0736 8.49759 11.4775C8.89981 11.8814 9.39314 12.0833 9.97759 12.0833Z" fill="#02F5C3"/>
</svg>
