<svg width="158" height="200" viewBox="0 0 158 200" fill="currentColor" xmlns="http://www.w3.org/2000/svg">
    <path fill-rule="evenodd" clip-rule="evenodd"
        d="M0.000327032 78.7751C0.124528 35.1448 35.5946 -0.123874 79.2249 0.000327032C122.855 0.124528 158.124 35.5946 158 79.2249C157.875 122.855 122.405 158.124 78.7751 158C35.1448 157.875 -0.123874 122.405 0.000327032 78.7751ZM79.185 14.0003C43.2867 13.8981 14.1025 42.9166 14.0003 78.815C13.9572 93.9621 19.0986 107.914 27.7538 118.99L35.9091 111.458C45.6175 126.374 62.4182 136.256 81.5438 136.311C111.696 136.397 136.209 112.023 136.295 81.87C136.346 64.1898 127.986 48.4486 114.983 38.4339L122.932 31.0934C111.408 20.52 96.0566 14.0483 79.185 14.0003ZM82.1999 39C78.6101 39 75.6999 41.9102 75.6999 45.5V46.7765C72.7474 47.4483 69.8808 48.5061 67.0999 49.95C61.9999 52.55 57.8499 56.35 54.6499 61.35C51.5499 66.35 49.9999 72.3 49.9999 79.2C49.9999 86.1 51.4499 92.05 54.3499 97.05C57.3499 101.95 61.4999 105.8 66.7999 108.6C69.5395 109.996 72.5061 111.031 75.6999 111.705V113.5C75.6999 117.09 78.6101 120 82.1999 120C85.7898 120 88.6999 117.09 88.6999 113.5V112.496C91.6257 112.233 94.5257 111.634 97.3999 110.7C101.5 109.3 104.95 107.45 107.75 105.15L99.3499 94.65C99.0448 94.8979 98.7288 95.1367 98.4018 95.3665C94.5054 98.8689 89.3515 101 83.6999 101C71.5496 101 61.6999 91.1503 61.6999 79C61.6999 66.8498 71.5496 57 83.6999 57C90.31 57 96.2392 59.9152 100.272 64.5301L108.35 54C105.35 51.5 101.8 49.55 97.6999 48.15C94.9666 47.15 91.9666 46.4833 88.6999 46.15V45.5C88.6999 41.9102 85.7898 39 82.1999 39ZM44.175 180.475C43.975 180.642 43.6 180.867 43.05 181.15C42.5167 181.433 41.8583 181.683 41.075 181.9C40.2917 182.117 39.425 182.217 38.475 182.2C37.025 182.167 35.725 181.908 34.575 181.425C33.4417 180.925 32.475 180.25 31.675 179.4C30.8917 178.55 30.2917 177.575 29.875 176.475C29.4583 175.375 29.25 174.2 29.25 172.95C29.25 171.55 29.4583 170.267 29.875 169.1C30.3083 167.933 30.9167 166.925 31.7 166.075C32.5 165.225 33.45 164.567 34.55 164.1C35.65 163.633 36.8667 163.4 38.2 163.4C39.4333 163.4 40.525 163.567 41.475 163.9C42.425 164.233 43.2 164.592 43.8 164.975L42.375 168.4C41.9583 168.083 41.4 167.758 40.7 167.425C40.0167 167.075 39.225 166.9 38.325 166.9C37.625 166.9 36.95 167.05 36.3 167.35C35.6667 167.633 35.1 168.042 34.6 168.575C34.1167 169.108 33.7333 169.733 33.45 170.45C33.1667 171.15 33.025 171.917 33.025 172.75C33.025 173.633 33.15 174.442 33.4 175.175C33.6667 175.908 34.0417 176.542 34.525 177.075C35.0083 177.592 35.5833 177.992 36.25 178.275C36.9333 178.558 37.7 178.7 38.55 178.7C39.5333 178.7 40.375 178.542 41.075 178.225C41.775 177.908 42.3083 177.575 42.675 177.225L44.175 180.475ZM53.3816 163.6C54.5316 163.6 55.5566 163.75 56.4566 164.05C57.3566 164.333 58.1066 164.75 58.7066 165.3C59.3233 165.833 59.79 166.483 60.1066 167.25C60.4233 168 60.5816 168.85 60.5816 169.8C60.5816 170.55 60.465 171.3 60.2316 172.05C60.015 172.8 59.6483 173.483 59.1316 174.1C58.7456 174.576 58.2603 174.983 57.6756 175.32L61.9566 182H57.7316L53.8456 176.15H51.4316V182H47.8066V163.6H53.3816ZM54.0066 172.65C54.5566 172.65 55.015 172.558 55.3816 172.375C55.7483 172.192 56.0316 171.958 56.2316 171.675C56.4483 171.392 56.5983 171.1 56.6816 170.8C56.7816 170.483 56.8316 170.192 56.8316 169.925C56.8316 169.725 56.7983 169.475 56.7316 169.175C56.6816 168.858 56.565 168.542 56.3816 168.225C56.1983 167.908 55.915 167.642 55.5316 167.425C55.165 167.208 54.665 167.1 54.0316 167.1H51.4316V172.65H54.0066ZM68.2311 176.275L61.4561 163.6H65.9311L70.1556 172.094L74.2811 163.6H78.7561L71.8561 176.275V182H68.2311V176.275ZM87.073 163.6C88.5897 163.6 89.873 163.858 90.9231 164.375C91.973 164.875 92.773 165.592 93.323 166.525C93.873 167.442 94.148 168.533 94.148 169.8C94.148 170.55 94.0314 171.308 93.7981 172.075C93.5814 172.825 93.223 173.508 92.723 174.125C92.2397 174.742 91.5814 175.242 90.748 175.625C89.9314 175.992 88.9231 176.175 87.723 176.175H85.123V182H81.498V163.6H87.073ZM87.698 172.65C88.248 172.65 88.7064 172.558 89.0731 172.375C89.4397 172.175 89.723 171.933 89.9231 171.65C90.1397 171.35 90.2897 171.042 90.373 170.725C90.473 170.408 90.523 170.133 90.523 169.9C90.523 169.717 90.4897 169.475 90.4231 169.175C90.373 168.858 90.2564 168.542 90.073 168.225C89.8897 167.908 89.6064 167.642 89.223 167.425C88.8564 167.208 88.3564 167.1 87.723 167.1H85.123V172.65H87.698ZM96.1416 163.6H108.542V167.1H104.067V182H100.442V167.1H96.1416V163.6ZM110.28 172.825C110.28 171.558 110.522 170.358 111.005 169.225C111.489 168.092 112.155 167.092 113.005 166.225C113.872 165.342 114.872 164.65 116.005 164.15C117.139 163.65 118.355 163.4 119.655 163.4C120.939 163.4 122.147 163.65 123.28 164.15C124.414 164.65 125.414 165.342 126.28 166.225C127.164 167.092 127.847 168.092 128.33 169.225C128.83 170.358 129.08 171.558 129.08 172.825C129.08 174.125 128.83 175.342 128.33 176.475C127.847 177.608 127.164 178.608 126.28 179.475C125.414 180.325 124.414 180.992 123.28 181.475C122.147 181.958 120.939 182.2 119.655 182.2C118.355 182.2 117.139 181.958 116.005 181.475C114.872 180.992 113.872 180.325 113.005 179.475C112.155 178.608 111.489 177.608 111.005 176.475C110.522 175.342 110.28 174.125 110.28 172.825ZM114.03 172.825C114.03 173.642 114.172 174.408 114.455 175.125C114.755 175.825 115.164 176.45 115.68 177C116.214 177.533 116.822 177.95 117.505 178.25C118.205 178.55 118.964 178.7 119.78 178.7C120.564 178.7 121.289 178.55 121.955 178.25C122.639 177.95 123.23 177.533 123.73 177C124.23 176.45 124.622 175.825 124.905 175.125C125.189 174.408 125.33 173.642 125.33 172.825C125.33 171.992 125.18 171.217 124.88 170.5C124.597 169.783 124.197 169.158 123.68 168.625C123.18 168.075 122.589 167.65 121.905 167.35C121.222 167.05 120.48 166.9 119.68 166.9C118.88 166.9 118.139 167.05 117.455 167.35C116.772 167.65 116.172 168.075 115.655 168.625C115.139 169.158 114.739 169.783 114.455 170.5C114.172 171.217 114.03 171.992 114.03 172.825ZM58.08 188.425C57.45 188.115 56.68 187.96 55.77 187.96H52.425V199H54.6V195.505H56.16C56.88 195.505 57.485 195.395 57.975 195.175C58.475 194.945 58.87 194.645 59.16 194.275C59.46 193.905 59.675 193.495 59.805 193.045C59.945 192.585 60.015 192.13 60.015 191.68C60.015 190.92 59.85 190.265 59.52 189.715C59.19 189.155 58.71 188.725 58.08 188.425ZM56.97 193.225C56.75 193.335 56.475 193.39 56.145 193.39H54.6V190.06H56.16C56.54 190.06 56.84 190.125 57.06 190.255C57.29 190.385 57.46 190.545 57.57 190.735C57.68 190.925 57.75 191.115 57.78 191.305C57.82 191.485 57.84 191.63 57.84 191.74C57.84 191.88 57.81 192.045 57.75 192.235C57.7 192.425 57.61 192.61 57.48 192.79C57.36 192.96 57.19 193.105 56.97 193.225ZM67.1511 188.23C66.6111 188.05 65.9961 187.96 65.3061 187.96H61.9611V199H64.1361V195.49H65.5845L67.9161 199H70.4511L67.8825 194.992C68.2333 194.79 68.5245 194.546 68.7561 194.26C69.0661 193.89 69.2861 193.48 69.4161 193.03C69.5561 192.58 69.6261 192.13 69.6261 191.68C69.6261 191.11 69.5311 190.6 69.3411 190.15C69.1511 189.69 68.8711 189.3 68.5011 188.98C68.1411 188.65 67.6911 188.4 67.1511 188.23ZM66.5061 193.225C66.2861 193.335 66.0111 193.39 65.6811 193.39H64.1361V190.06H65.6961C66.0761 190.06 66.3761 190.125 66.5961 190.255C66.8261 190.385 66.9961 190.545 67.1061 190.735C67.2161 190.925 67.2861 191.115 67.3161 191.305C67.3561 191.485 67.3761 191.635 67.3761 191.755C67.3761 191.915 67.3461 192.09 67.2861 192.28C67.2361 192.46 67.1461 192.635 67.0161 192.805C66.8961 192.975 66.7261 193.115 66.5061 193.225ZM71.6235 191.335C71.3335 192.015 71.1885 192.735 71.1885 193.495C71.1885 194.275 71.3335 195.005 71.6235 195.685C71.9135 196.365 72.3135 196.965 72.8235 197.485C73.3435 197.995 73.9435 198.395 74.6235 198.685C75.3035 198.975 76.0335 199.12 76.8135 199.12C77.5835 199.12 78.3085 198.975 78.9885 198.685C79.6685 198.395 80.2685 197.995 80.7885 197.485C81.3185 196.965 81.7285 196.365 82.0185 195.685C82.3185 195.005 82.4685 194.275 82.4685 193.495C82.4685 192.735 82.3185 192.015 82.0185 191.335C81.7285 190.655 81.3185 190.055 80.7885 189.535C80.2685 189.005 79.6685 188.59 78.9885 188.29C78.3085 187.99 77.5835 187.84 76.8135 187.84C76.0335 187.84 75.3035 187.99 74.6235 188.29C73.9435 188.59 73.3435 189.005 72.8235 189.535C72.3135 190.055 71.9135 190.655 71.6235 191.335ZM73.6935 194.875C73.5235 194.445 73.4385 193.985 73.4385 193.495C73.4385 192.995 73.5235 192.53 73.6935 192.1C73.8635 191.67 74.1035 191.295 74.4135 190.975C74.7235 190.645 75.0835 190.39 75.4935 190.21C75.9035 190.03 76.3485 189.94 76.8285 189.94C77.3085 189.94 77.7535 190.03 78.1635 190.21C78.5735 190.39 78.9285 190.645 79.2285 190.975C79.5385 191.295 79.7785 191.67 79.9485 192.1C80.1285 192.53 80.2185 192.995 80.2185 193.495C80.2185 193.985 80.1335 194.445 79.9635 194.875C79.7935 195.295 79.5585 195.67 79.2585 196C78.9585 196.32 78.6035 196.57 78.1935 196.75C77.7935 196.93 77.3585 197.02 76.8885 197.02C76.3985 197.02 75.9435 196.93 75.5235 196.75C75.1135 196.57 74.7485 196.32 74.4285 196C74.1185 195.67 73.8735 195.295 73.6935 194.875ZM91.5369 187.96H84.6369V199H86.8119V194.665H90.9069V192.565H86.8119V190.06H91.5369V187.96ZM95.8061 187.96H93.6311V199H95.8061V187.96ZM105.345 187.96H97.9055V190.06H100.485V199H102.66V190.06H105.345V187.96Z"
        fill="#0D0C0C" />
</svg>