<svg width="899" height="453" viewBox="0 0 899 453" fill="none" xmlns="http://www.w3.org/2000/svg">
    <g clip-path="url(#clip0_142_298)">
        <circle cx="449.5" cy="226.5" r="50" stroke="#0f0e0e" stroke-width="3" fill="black" />
        <path
            d="M880.014 447.91C888.674 447.91 895.719 440.872 895.414 432.2C892.636 352.981 868.876 275.91 826.567 208.873C821.945 201.556 812.193 199.72 805.047 204.586C797.88 209.467 796.052 219.237 800.664 226.59C839.432 288.392 861.288 359.301 864.036 432.201C864.366 440.873 871.355 447.91 880.014 447.91Z"
            fill="#16C784" />
        <path
            d="M796.895 193.141C803.899 188.03 805.453 178.171 800.095 171.346C750.97 108.77 686.054 60.3991 612.036 31.22C604.001 28.0529 595.057 32.3449 592.167 40.4971C589.272 48.6658 593.548 57.6119 601.589 60.8073C669.669 87.8596 729.414 132.389 774.791 189.894C780.149 196.685 789.911 198.237 796.895 193.141Z"
            fill="#93D900" />
        <path
            d="M574.09 34.5791C576.625 26.2918 571.972 17.4883 563.617 15.2505C487.243 -5.20334 406.806 -5.08074 330.495 15.6059C322.146 17.8692 317.522 26.6869 320.081 34.9665C322.635 43.2311 331.38 47.8302 339.72 45.5921C410.046 26.7192 484.1 26.6063 554.485 45.2647C562.83 47.4773 571.561 42.8515 574.09 34.5791Z"
            fill="#F3D42F" />
        <path
            d="M305.485 39.7174C302.639 31.5495 293.717 27.2087 285.666 30.332C211.958 58.9266 147.125 106.523 97.767 168.275C92.3497 175.052 93.8191 184.925 100.779 190.098C107.719 195.254 117.491 193.788 122.909 187.044C168.493 130.302 228.16 86.4873 295.949 59.9756C304.008 56.8239 308.337 47.9017 305.485 39.7174Z"
            fill="#EA8C00" />
        <path
            d="M89.964 205.204C82.8091 200.351 73.0582 202.203 68.452 209.529C26.3783 276.447 2.76337 353.316 0.0107093 432.31C-0.291496 440.982 6.75877 448.018 15.4182 448.016C24.0775 448.013 31.0646 440.975 31.3897 432.303C34.1149 359.612 55.835 288.892 94.3833 227.2C98.9825 219.84 97.1403 210.073 89.964 205.204Z"
            fill="#EA3943" />
    </g>
    <defs>
        <clipPath id="clip0_142_298">
            <rect width="899" height="453" fill="white" />
        </clipPath>
    </defs>
</svg>